<svg width="24" height="21" viewBox="0 0 24 21" fill="none" xmlns="http://www.w3.org/2000/svg">
<path d="M20.6797 2.54297C18.1875 0.4375 14.3633 0.738281 12 3.1875C9.59375 0.738281 5.76953 0.4375 3.27734 2.54297C0.0546875 5.25 0.527344 9.67578 2.84766 12.0391L10.3672 19.7305C10.7969 20.1602 11.3555 20.418 12 20.418C12.6016 20.418 13.1602 20.1602 13.5898 19.7305L21.1523 12.0391C23.4297 9.67578 23.9023 5.25 20.6797 2.54297ZM19.6484 10.5781L12.1289 18.2695C12.043 18.3555 11.957 18.3555 11.8281 18.2695L4.30859 10.5781C2.71875 8.98828 2.41797 5.98047 4.60938 4.13281C6.28516 2.71484 8.86328 2.92969 10.4961 4.5625L12 6.10938L13.5039 4.5625C15.0938 2.92969 17.6719 2.71484 19.3477 4.08984C21.5391 5.98047 21.2383 8.98828 19.6484 10.5781Z" fill="#61615D"/>
<path d="M20.6797 2.54297L20.3893 2.88672L20.3903 2.88754L20.6797 2.54297ZM12 3.1875L11.679 3.50287L12.0029 3.83256L12.3238 3.49997L12 3.1875ZM3.27734 2.54297L3.56678 2.88754L3.56775 2.88672L3.27734 2.54297ZM2.84766 12.0391L3.16943 11.7245L3.16876 11.7238L2.84766 12.0391ZM10.3672 19.7305L10.0454 20.0451L10.049 20.0487L10.3672 19.7305ZM13.5898 19.7305L13.9081 20.0487L13.9107 20.046L13.5898 19.7305ZM21.1523 12.0391L21.4732 12.3546L21.4764 12.3513L21.1523 12.0391ZM19.6484 10.5781L19.3302 10.2599L19.3267 10.2635L19.6484 10.5781ZM12.1289 18.2695L12.4471 18.5877L12.4507 18.5841L12.1289 18.2695ZM11.8281 18.2695L11.5064 18.5841L11.5393 18.6178L11.5785 18.644L11.8281 18.2695ZM4.30859 10.5781L4.63039 10.2635L4.62679 10.2599L4.30859 10.5781ZM4.60938 4.13281L4.89944 4.47685L4.90005 4.47634L4.60938 4.13281ZM10.4961 4.5625L10.8188 4.24878L10.8143 4.2443L10.4961 4.5625ZM12 6.10938L11.6774 6.42306L12 6.75493L12.3226 6.42306L12 6.10938ZM13.5039 4.5625L13.1815 4.24857L13.1813 4.24881L13.5039 4.5625ZM19.3477 4.08984L19.6417 3.74902L19.6331 3.74196L19.3477 4.08984ZM20.9701 2.19922C18.2816 -0.0720553 14.1898 0.269989 11.6762 2.87503L12.3238 3.49997C14.5368 1.20657 18.0934 0.947055 20.3893 2.88672L20.9701 2.19922ZM12.321 2.87213C9.76654 0.272049 5.6767 -0.0731699 2.98694 2.19922L3.56775 2.88672C5.86236 0.94817 9.42096 1.20451 11.679 3.50287L12.321 2.87213ZM2.98791 2.1984C-0.469269 5.10243 0.0548196 9.83682 2.52655 12.3543L3.16876 11.7238C0.999868 9.51474 0.578644 5.39757 3.56678 2.88754L2.98791 2.1984ZM2.52588 12.3536L10.0454 20.0451L10.689 19.4159L3.16943 11.7245L2.52588 12.3536ZM10.049 20.0487C10.5563 20.5559 11.2268 20.868 12 20.868V19.968C11.4841 19.968 11.0375 19.7644 10.6854 19.4123L10.049 20.0487ZM12 20.868C12.7347 20.868 13.4042 20.5525 13.908 20.0487L13.2716 19.4123C12.9161 19.7678 12.4684 19.968 12 19.968V20.868ZM13.9107 20.046L21.4732 12.3546L20.8315 11.7236L13.269 19.415L13.9107 20.046ZM21.4764 12.3513C23.9017 9.83449 24.4259 5.10206 20.9691 2.1984L20.3903 2.88754C23.3788 5.39794 22.9577 9.51707 20.8283 11.7268L21.4764 12.3513ZM19.3267 10.2635L11.8071 17.9549L12.4507 18.5841L19.9702 10.8927L19.3267 10.2635ZM11.8107 17.9513C11.815 17.9471 11.8335 17.9294 11.8675 17.913C11.9044 17.895 11.9485 17.884 11.9946 17.884C12.0777 17.884 12.1142 17.9194 12.0777 17.8951L11.5785 18.644C11.671 18.7056 11.8149 18.784 11.9946 18.784C12.1977 18.784 12.3486 18.6862 12.4471 18.5877L11.8107 17.9513ZM12.1499 17.9549L4.63037 10.2635L3.98682 10.8927L11.5064 18.5841L12.1499 17.9549ZM4.62679 10.2599C3.19619 8.82933 2.93777 6.13081 4.89944 4.47685L4.31931 3.78878C1.89817 5.83013 2.24131 9.14723 3.9904 10.8963L4.62679 10.2599ZM4.90005 4.47634C6.37615 3.22733 8.69036 3.39316 10.1779 4.8807L10.8143 4.2443C9.0362 2.46621 6.19417 2.20236 4.3187 3.78929L4.90005 4.47634ZM10.1734 4.87619L11.6774 6.42306L12.3226 5.79569L10.8187 4.24881L10.1734 4.87619ZM12.3226 6.42306L13.8266 4.87619L13.1813 4.24881L11.6774 5.79569L12.3226 6.42306ZM13.8263 4.87643C15.2679 3.3959 17.583 3.22405 19.0622 4.43773L19.6331 3.74196C17.7607 2.20564 14.9196 2.46348 13.1815 4.24857L13.8263 4.87643ZM19.0537 4.43056C21.0229 6.12952 20.7584 8.83172 19.3302 10.2599L19.9666 10.8963C21.7181 9.14484 22.0552 5.83142 19.6416 3.74912L19.0537 4.43056Z" fill="white"/>
</svg>
